<svg width="199" height="66" viewBox="0 0 199 66" fill="none" xmlns="http://www.w3.org/2000/svg">
<g style="mix-blend-mode:darken">
<path d="M21.936 20.728C20.656 20.728 18.88 20.52 16.608 20.104C13.408 22.536 10.448 23.752 7.728 23.752C7.632 23.752 7.536 23.752 7.44 23.752C5.488 23.72 3.952 23.208 2.832 22.216C1.744 21.192 1.2 19.848 1.2 18.184C1.2 16.488 1.744 15.112 2.832 14.056C3.952 13 5.6 12.472 7.776 12.472C9.216 12.472 11.52 12.952 14.688 13.912C18.016 14.904 20.496 15.4 22.128 15.4C24.816 15.4 26.592 14.44 27.456 12.52L29.328 13.816C28.624 18.424 26.16 20.728 21.936 20.728ZM5.952 19.624C5.952 20.424 6.64 20.824 8.016 20.824C9.392 20.824 11.072 20.312 13.056 19.288C10.24 18.584 8.304 18.232 7.248 18.232C6.896 18.232 6.592 18.376 6.336 18.664C6.08 18.92 5.952 19.24 5.952 19.624ZM19.056 23.176L18.288 28.312H25.44C25.728 28.984 25.872 29.64 25.872 30.28C25.872 30.92 25.568 31.464 24.96 31.912C24.352 32.328 23.584 32.536 22.656 32.536H17.616L17.568 32.968C21.6 34.888 23.616 37.736 23.616 41.512C23.616 44.36 22.864 46.376 21.36 47.56C19.856 48.712 18.08 49.288 16.032 49.288C13.984 49.288 12.4 48.776 11.28 47.752C10.16 46.696 9.6 45.304 9.6 43.576C9.6 43.288 9.632 42.92 9.696 42.472L10.992 32.536H6.48C6.672 30.712 6.832 29.304 6.96 28.312H11.568L12.096 24.088C13.76 23.288 15.152 22.888 16.272 22.888C17.392 22.888 18.32 22.984 19.056 23.176ZM17.52 44.92C18.288 44.92 18.96 44.648 19.536 44.104C20.112 43.528 20.4 42.632 20.4 41.416C20.4 39.016 19.312 37.176 17.136 35.896C16.624 39.448 16.352 41.672 16.32 42.568C16.32 43.432 16.432 44.04 16.656 44.392C16.912 44.744 17.2 44.92 17.52 44.92ZM38.4413 25.912C41.3853 25.912 43.8333 26.856 45.7853 28.744C47.7693 30.632 48.7613 32.936 48.7613 35.656C48.7613 39.784 47.5453 43.096 45.1133 45.592C42.7133 48.056 39.8013 49.288 36.3773 49.288C32.9533 49.288 30.2333 48.312 28.2173 46.36C26.2333 44.408 25.2413 41.992 25.2413 39.112C25.2413 35.08 26.4733 31.88 28.9373 29.512C31.4333 27.112 34.6013 25.912 38.4413 25.912ZM37.4813 29.8C35.9773 29.8 34.7133 30.664 33.6893 32.392C32.6653 34.12 32.1053 36.296 32.0093 38.92C32.0093 40.776 32.3773 42.312 33.1133 43.528C33.8813 44.744 35.0333 45.352 36.5693 45.352C38.1053 45.352 39.3853 44.504 40.4093 42.808C41.4653 41.112 41.9933 39.176 41.9933 37C41.9933 34.824 41.6253 33.096 40.8893 31.816C40.1533 30.472 39.0173 29.8 37.4813 29.8ZM64.9628 32.2C64.9628 30.792 64.3068 30.088 62.9948 30.088C61.7148 30.088 60.6908 30.92 59.9228 32.584C63.3788 35.304 65.1068 38.36 65.1068 41.752C65.1068 44.216 64.4188 46.088 63.0428 47.368C61.6668 48.648 59.9388 49.288 57.8588 49.288C55.7788 49.288 54.2588 48.648 53.2988 47.368C52.3388 46.056 51.8588 44.408 51.8588 42.424C51.8588 41.816 51.8748 41.368 51.9068 41.08L53.5868 26.44C54.7388 26.088 55.9068 25.912 57.0908 25.912C59.0428 25.912 60.0188 26.632 60.0188 28.072V28.168C61.2988 26.664 62.9308 25.912 64.9148 25.912C66.3548 25.912 67.4748 26.248 68.2748 26.92C69.0748 27.56 69.4748 28.424 69.4748 29.512C69.4748 30.6 69.0588 31.496 68.2268 32.2C67.4268 32.872 66.3708 33.208 65.0588 33.208C64.9948 33.208 64.9308 33.208 64.8668 33.208C64.9308 32.856 64.9628 32.52 64.9628 32.2ZM61.9868 41.512C61.9868 39.656 61.0268 37.8 59.1068 35.944C58.5308 40.552 58.2428 42.872 58.2428 42.904C58.2428 44.248 58.7868 44.92 59.8748 44.92C61.2828 44.92 61.9868 43.784 61.9868 41.512ZM81.432 15.592C81.432 15.784 81 19.224 80.136 25.912H87.192V29.608H79.656L79.512 30.808C83.256 33.944 85.128 37.368 85.128 41.08C85.128 43.992 84.376 46.088 82.872 47.368C81.4 48.648 79.624 49.288 77.544 49.288C75.464 49.288 73.944 48.744 72.984 47.656C72.024 46.536 71.544 45.192 71.544 43.624C71.544 43.272 71.576 42.888 71.64 42.472L73.128 29.704L72.936 29.608H69.048C69.016 29.288 69 28.776 69 28.072C69 27.336 69.144 26.616 69.432 25.912H73.56L75.096 12.856C75.768 12.6 76.664 12.472 77.784 12.472C80.216 12.472 81.432 13.512 81.432 15.592ZM81.912 41.032C81.912 38.824 80.952 36.648 79.032 34.504C78.456 39.272 78.168 42.024 78.168 42.76C78.168 44.2 78.632 44.92 79.56 44.92C80.232 44.92 80.792 44.616 81.24 44.008C81.688 43.368 81.912 42.376 81.912 41.032ZM108.492 26.392C107.18 36.76 106.524 42.28 106.524 42.952C106.524 44.232 106.988 44.872 107.916 44.872C108.748 44.872 109.644 44.312 110.604 43.192C111.596 42.04 112.38 40.328 112.956 38.056C114.012 39.208 114.652 40.104 114.876 40.744C114.14 43.848 112.972 46.04 111.372 47.32C109.772 48.6 108.124 49.24 106.428 49.24C103.644 49.24 101.772 48.168 100.812 46.024C99.148 48.168 96.924 49.24 94.14 49.24C91.836 49.24 90.06 48.664 88.812 47.512C87.564 46.36 86.94 44.856 86.94 43C86.94 42.552 87.02 41.768 87.18 40.648C87.916 34.696 88.476 29.96 88.86 26.44C89.852 26.088 90.764 25.912 91.596 25.912C92.428 25.912 93.052 25.944 93.468 26.008C93.884 26.072 94.284 26.312 94.668 26.728C95.052 27.144 95.244 27.736 95.244 28.504L93.66 40.744C93.596 41.128 93.564 41.48 93.564 41.8C93.564 43.688 94.428 44.632 96.156 44.632C97.756 44.632 99.084 43.848 100.14 42.28C100.14 41.928 100.172 41.368 100.236 40.6L101.82 27.832C102.044 27.288 102.524 26.84 103.26 26.488C103.996 26.104 104.908 25.912 105.996 25.912C107.116 25.912 107.948 26.072 108.492 26.392ZM125.092 43.624L126.244 32.92C126.244 32.056 126.02 31.336 125.572 30.76C125.124 30.184 124.372 29.896 123.316 29.896C122.292 29.896 121.412 30.36 120.676 31.288C119.972 32.184 119.524 33.32 119.332 34.696C118.18 43.464 117.572 48.232 117.508 49H111.028L113.668 26.392C115.012 26.04 116.036 25.864 116.74 25.864C118.884 25.864 120.004 26.648 120.1 28.216C121.668 26.68 123.54 25.912 125.716 25.912C127.924 25.912 129.652 26.456 130.9 27.544C132.148 28.632 132.772 30.008 132.772 31.672C132.772 32.12 132.676 32.968 132.484 34.216C131.748 39.08 131.38 41.912 131.38 42.712C131.38 44.184 131.876 44.92 132.868 44.92C135.044 44.92 136.692 42.648 137.812 38.104C138.9 39.256 139.556 40.168 139.78 40.84C138.084 46.472 135.14 49.288 130.948 49.288C128.964 49.288 127.492 48.68 126.532 47.464C125.572 46.248 125.092 44.968 125.092 43.624ZM145.231 38.248C147.215 37.832 148.687 37.032 149.647 35.848C150.639 34.664 151.135 33.528 151.135 32.44C151.135 31.32 150.831 30.568 150.223 30.184C149.647 29.768 149.007 29.56 148.303 29.56C146.799 29.56 145.471 30.408 144.319 32.104C143.199 33.768 142.639 35.768 142.639 38.104C142.639 40.408 143.183 42.136 144.271 43.288C145.391 44.408 146.767 44.968 148.399 44.968C150.799 44.968 153.103 44.136 155.311 42.472C157.519 40.808 159.311 38.632 160.687 35.944C161.391 36.616 162.031 37.448 162.607 38.44C161.551 40.84 159.679 43.192 156.991 45.496C155.647 46.616 154.047 47.528 152.191 48.232C150.367 48.936 148.479 49.288 146.527 49.288C143.327 49.288 140.799 48.312 138.943 46.36C136.959 44.248 135.967 41.544 135.967 38.248C135.967 34.952 137.199 32.072 139.663 29.608C142.159 27.144 145.135 25.912 148.591 25.912C151.055 25.912 153.055 26.456 154.591 27.544C156.127 28.6 156.911 30.04 156.943 31.864C156.943 34.328 155.951 36.328 153.967 37.864C152.015 39.4 149.327 40.472 145.903 41.08L145.231 38.248Z" fill="black"/>
</g>
<g style="mix-blend-mode:darken" clip-path="url(#clip0_8_5)">
<path d="M177.74 30.6349C177.758 30.6301 177.774 30.6226 177.787 30.6131C177.8 30.6036 177.809 30.5922 177.815 30.5799L179.548 26.8849L187.528 18.8999C187.53 18.8978 187.533 18.8956 187.535 18.8933C187.536 18.8922 187.537 18.8911 187.538 18.8899C187.538 18.8888 187.539 18.8877 187.54 18.8866C187.542 18.8839 187.544 18.8811 187.545 18.8783C187.545 18.8766 187.545 18.8749 187.545 18.8733C187.547 18.8716 187.548 18.87 187.55 18.8683C187.55 18.8661 187.55 18.8638 187.55 18.8616C187.55 18.8588 187.55 18.8561 187.55 18.8533C187.55 18.8516 187.55 18.8499 187.55 18.8483C187.55 18.8466 187.55 18.8449 187.55 18.8433L186.51 7.26494C186.51 7.26439 186.51 7.26383 186.51 7.26328C186.51 7.2605 186.51 7.25772 186.51 7.25494C186.51 7.25383 186.51 7.25272 186.51 7.25161C186.507 7.24698 186.504 7.24252 186.5 7.23828C186.499 7.23544 186.497 7.23266 186.495 7.22994C186.493 7.22767 186.492 7.22545 186.49 7.22328C186.488 7.22041 186.485 7.21762 186.483 7.21494C186.48 7.21321 186.478 7.21154 186.475 7.20994C186.475 7.20939 186.475 7.20883 186.475 7.20828L176.045 0.0266087V0.0232754C176.041 0.0214542 176.037 0.0197849 176.033 0.0182754C176.03 0.0171068 176.028 0.015995 176.025 0.0149421C176.023 0.0137735 176.02 0.0126617 176.018 0.0116087C176.016 0.0110293 176.014 0.0104737 176.013 0.00994206C176.011 0.00936267 176.009 0.00880699 176.008 0.00827539C176.006 0.00769601 176.004 0.00714032 176.003 0.00660872C176.003 0.00605318 176.003 0.0054976 176.003 0.00494206C176 0.00489397 175.998 0.00489397 175.995 0.00494206C175.993 0.00436267 175.992 0.00380699 175.99 0.00327539C175.985 0.00196241 175.98 0.00084924 175.975 -5.7944e-05C175.972 -0.000143446 175.968 -0.000143446 175.965 -5.7944e-05C175.963 -7.93135e-05 175.962 -7.93135e-05 175.96 -5.7944e-05C175.958 -7.93135e-05 175.957 -7.93135e-05 175.955 -5.7944e-05C175.953 -0.000106031 175.95 -0.000106031 175.948 -5.7944e-05C175.946 -7.93135e-05 175.944 -7.93135e-05 175.943 -5.7944e-05H162.05C162.048 -0.000106031 162.045 -0.000106031 162.043 -5.7944e-05C162.039 -0.000143446 162.036 -0.000143446 162.033 -5.7944e-05C162.029 -0.000143446 162.026 -0.000143446 162.023 -5.7944e-05C162.02 0.000446794 162.017 0.00100261 162.015 0.00160872C162.012 0.00211346 162.01 0.00266927 162.008 0.00327539C162.003 0.00424182 161.999 0.00535443 161.995 0.00660872C161.992 0.00816753 161.988 0.00983612 161.985 0.0116087C161.982 0.0126237 161.978 0.0137359 161.975 0.0149421C161.974 0.0149367 161.973 0.0149367 161.973 0.0149421C161.97 0.0170828 161.967 0.0193076 161.965 0.0216087C161.964 0.0216034 161.963 0.0216034 161.963 0.0216087C161.96 0.0232067 161.957 0.0248747 161.955 0.0266087L151.525 7.20994C151.522 7.21263 151.52 7.21541 151.518 7.21828C151.512 7.22291 151.507 7.22794 151.503 7.23328C151.501 7.23599 151.499 7.23878 151.498 7.24161C151.495 7.24596 151.494 7.25042 151.493 7.25494C151.492 7.25605 151.492 7.25717 151.493 7.25828C151.492 7.25993 151.491 7.26159 151.49 7.26328C151.49 7.26494 151.49 7.26661 151.49 7.26828L150.448 18.8516C150.447 18.8527 150.447 18.8538 150.448 18.8549C150.447 18.8577 150.447 18.8605 150.448 18.8633C150.447 18.8655 150.447 18.8677 150.448 18.8699C150.447 18.8711 150.447 18.8722 150.448 18.8733C150.447 18.8761 150.447 18.8788 150.448 18.8816C150.447 18.8833 150.447 18.8849 150.448 18.8866C150.449 18.8877 150.451 18.8889 150.453 18.8899C150.452 18.8911 150.452 18.8922 150.453 18.8933C150.454 18.8944 150.456 18.8955 150.458 18.8966C150.46 18.8989 150.462 18.9011 150.465 18.9033C150.465 18.9049 150.465 18.9066 150.465 18.9083L158.453 26.8916L160.183 30.5833V30.5866C160.182 30.5872 160.182 30.5877 160.183 30.5883C160.183 30.5894 160.184 30.5905 160.185 30.5916C160.187 30.5933 160.188 30.595 160.19 30.5966C160.19 30.5972 160.19 30.5977 160.19 30.5983C160.191 30.5994 160.192 30.6005 160.193 30.6016C160.192 30.6022 160.192 30.6027 160.193 30.6033C160.194 30.6039 160.196 30.6044 160.198 30.6049C160.198 30.6066 160.199 30.6083 160.2 30.6099C160.201 30.6105 160.202 30.6111 160.203 30.6116C160.203 30.6122 160.204 30.6127 160.205 30.6133C160.207 30.6144 160.208 30.6155 160.21 30.6166C160.212 30.6189 160.215 30.6211 160.218 30.6233C160.219 30.6239 160.221 30.6244 160.223 30.6249C160.224 30.6261 160.226 30.6272 160.228 30.6283C160.228 30.6283 160.229 30.6283 160.23 30.6283C160.232 30.63 160.235 30.6317 160.238 30.6333C160.238 30.6333 160.239 30.6333 160.24 30.6333C160.242 30.6339 160.243 30.6344 160.245 30.6349C160.247 30.6361 160.248 30.6372 160.25 30.6383C160.251 30.6383 160.252 30.6383 160.253 30.6383C160.253 30.6383 160.254 30.6383 160.255 30.6383C160.256 30.6388 160.257 30.6394 160.258 30.6399C160.259 30.64 160.261 30.64 160.263 30.6399C160.263 30.6405 160.264 30.6411 160.265 30.6416C160.266 30.6416 160.267 30.6416 160.268 30.6416C160.27 30.6422 160.272 30.6428 160.275 30.6433C160.277 30.6433 160.278 30.6433 160.28 30.6433C160.28 30.6438 160.28 30.6444 160.28 30.6449C160.283 30.645 160.285 30.645 160.288 30.6449C160.289 30.645 160.291 30.645 160.293 30.6449C160.295 30.6455 160.297 30.6461 160.3 30.6466C160.301 30.6466 160.302 30.6466 160.303 30.6466C160.304 30.6466 160.306 30.6466 160.308 30.6466H177.693C177.71 30.6466 177.727 30.6443 177.743 30.6399L177.74 30.6349ZM177.595 30.4683H161.223L179.23 26.9766L177.595 30.4683ZM179.14 26.8133L160.548 30.4166L167.308 20.9533L179.14 26.8133ZM179.31 26.6799L167.475 20.8166L180.325 13.9416L179.31 26.6799ZM179.585 26.5349L180.585 13.9649L187.255 18.8599L179.585 26.5349ZM160.335 30.3183L158.718 26.8683L166.798 21.2683L160.335 30.3183ZM158.59 26.7083L150.855 18.9733L166.998 20.8783L158.59 26.7083ZM187.27 18.6116L180.633 13.7449L186.273 7.54828L187.27 18.6116ZM167.333 20.6716L162.25 8.80494L180.22 13.7766L167.333 20.6716ZM167.078 20.7116L150.808 18.7916L161.995 8.84828L167.078 20.7116ZM180.29 13.6116L162.288 8.62494L175.87 0.249942L180.29 13.6116ZM180.528 13.5233L176.175 0.361609L186.213 7.27828L180.528 13.5233ZM150.733 18.5666L151.74 7.36661L161.815 8.71161L150.733 18.5666ZM161.918 8.54828L151.88 7.20994L161.918 0.296609V8.54828ZM162.178 8.45494V0.166609H175.618L162.178 8.45494ZM160.308 30.7216V37.6266L164.488 35.2883L160.308 30.7216ZM160.45 37.7749L164.275 38.7949L168.8 39.9999L164.625 35.4383L160.45 37.7749ZM169.203 39.9999L177.55 37.7749L173.375 35.4383L169.203 39.9999ZM177.69 37.6266V30.7199L173.515 35.2866L177.69 37.6266ZM160.54 30.6399L169 39.8866L177.458 30.6399H160.54Z" fill="#222222"/>
</g>
<defs>
<clipPath id="clip0_8_5">
<rect width="60" height="40" fill="white" transform="translate(139)"/>
</clipPath>
</defs>
</svg>
